<?xml version="1.0" encoding="UTF-8" standalone="no"?>
<svg
   xmlns:dc="http://purl.org/dc/elements/1.1/"
   xmlns:cc="http://creativecommons.org/ns#"
   xmlns:rdf="http://www.w3.org/1999/02/22-rdf-syntax-ns#"
   xmlns:svg="http://www.w3.org/2000/svg"
   xmlns="http://www.w3.org/2000/svg"
   xmlns:sodipodi="http://sodipodi.sourceforge.net/DTD/sodipodi-0.dtd"
   xmlns:inkscape="http://www.inkscape.org/namespaces/inkscape"
   inkscape:export-ydpi="96"
   inkscape:export-xdpi="96"
   inkscape:export-filename="/Users/vimalmenon/code/java/new-vimalmenon.com/assets/image/512x512.png"
   width="512"
   height="512"
   viewBox="0 0 135.46666 135.46667"
   version="1.1"
   id="svg889"
   inkscape:version="1.0 (4035a4f, 2020-05-01)"
   sodipodi:docname="logo.svg">
  <defs
     id="defs883" />
  <sodipodi:namedview
     id="base"
     pagecolor="#ffffff"
     bordercolor="#666666"
     borderopacity="1.0"
     inkscape:pageopacity="0.0"
     inkscape:pageshadow="2"
     inkscape:zoom="1.2912503"
     inkscape:cx="162.014"
     inkscape:cy="287.56427"
     inkscape:document-units="mm"
     inkscape:current-layer="layer4"
     inkscape:document-rotation="0"
     showgrid="false"
     units="px"
     inkscape:window-width="1792"
     inkscape:window-height="1120"
     inkscape:window-x="0"
     inkscape:window-y="0"
     inkscape:window-maximized="0"
     inkscape:pagecheckerboard="true" />
  <metadata
     id="metadata886">
    <rdf:RDF>
      <cc:Work
         rdf:about="">
        <dc:format>image/svg+xml</dc:format>
        <dc:type
           rdf:resource="http://purl.org/dc/dcmitype/StillImage" />
        <dc:title></dc:title>
      </cc:Work>
    </rdf:RDF>
  </metadata>
  <g
     inkscape:label="Main"
     inkscape:groupmode="layer"
     id="layer1"
     style="display:inline;opacity:1">
    <path
       inkscape:export-ydpi="96"
       inkscape:export-xdpi="96"
       d="m 67.661233,1.6686444 v 0.0062 C 47.543867,2.4236036 27.722411,6.8789854 9.2074382,14.852336 v 0.0021 C 7.0785243,15.771966 5.7589594,17.969284 5.9528566,20.277844 9.636899,64.163573 30.950454,104.69386 65.029353,132.6224 h 0.0016 c 0.773139,0.63341 1.686637,1.01382 2.630329,1.15342 v 0.0222 c 0.02405,-0.003 0.04782,-0.008 0.07183,-0.0114 0.024,0.003 0.04779,0.008 0.07183,0.0114 v -0.0222 c 0.943692,-0.1396 1.85719,-0.52001 2.630332,-1.15342 h 0.0016 C 104.51572,104.69387 125.82976,64.163538 129.51381,20.277844 c 0.1939,-2.30856 -1.12565,-4.505878 -3.25458,-5.423441 v -0.0021 C 107.74413,6.8789849 87.922265,2.4236036 67.804893,1.6748456 v -0.0062 c -0.02394,8.705e-4 -0.04788,0.00222 -0.07183,0.0031 -0.02394,-8.81e-4 -0.04788,-0.00223 -0.07183,-0.0031 z"
       style="color:#000000;font-style:normal;font-variant:normal;font-weight:normal;font-stretch:normal;font-size:medium;line-height:normal;font-family:sans-serif;font-variant-ligatures:normal;font-variant-position:normal;font-variant-caps:normal;font-variant-numeric:normal;font-variant-alternates:normal;font-variant-east-asian:normal;font-feature-settings:normal;font-variation-settings:normal;text-indent:0;text-align:start;text-decoration:none;text-decoration-line:none;text-decoration-style:solid;text-decoration-color:#000000;letter-spacing:normal;word-spacing:normal;text-transform:none;writing-mode:lr-tb;direction:ltr;text-orientation:mixed;dominant-baseline:auto;baseline-shift:baseline;text-anchor:start;white-space:normal;shape-padding:0;shape-margin:0;inline-size:0;clip-rule:nonzero;display:inline;overflow:visible;visibility:visible;isolation:auto;mix-blend-mode:normal;color-interpolation:sRGB;color-interpolation-filters:linearRGB;solid-color:#000000;solid-opacity:1;vector-effect:none;fill:#00172b;fill-opacity:1;fill-rule:nonzero;stroke:none;stroke-width:5.41631;stroke-linecap:round;stroke-linejoin:round;stroke-miterlimit:80;stroke-dasharray:none;stroke-dashoffset:0;stroke-opacity:1;color-rendering:auto;image-rendering:auto;shape-rendering:auto;text-rendering:auto;enable-background:accumulate;stop-color:#000000"
       id="path3568" />
    <path
       inkscape:export-ydpi="96"
       inkscape:export-xdpi="96"
       d="M 67.728939,5.1273365 C 47.543273,5.85745 27.653188,10.325143 9.0767066,18.324981 12.746072,62.035898 33.896602,102.41293 67.728939,130.33933 Z m 0.0083,0 V 130.33933 C 101.56955,102.41293 122.72057,62.035898 126.38996,18.324981 107.81337,10.325142 87.922878,5.85745 67.737207,5.1273365 Z"
       style="color:#000000;font-style:normal;font-variant:normal;font-weight:normal;font-stretch:normal;font-size:medium;line-height:normal;font-family:sans-serif;font-variant-ligatures:normal;font-variant-position:normal;font-variant-caps:normal;font-variant-numeric:normal;font-variant-alternates:normal;font-variant-east-asian:normal;font-feature-settings:normal;font-variation-settings:normal;text-indent:0;text-align:start;text-decoration:none;text-decoration-line:none;text-decoration-style:solid;text-decoration-color:#000000;letter-spacing:normal;word-spacing:normal;text-transform:none;writing-mode:lr-tb;direction:ltr;text-orientation:mixed;dominant-baseline:auto;baseline-shift:baseline;text-anchor:start;white-space:normal;shape-padding:0;shape-margin:0;inline-size:0;clip-rule:nonzero;display:inline;overflow:visible;visibility:visible;opacity:1;isolation:auto;mix-blend-mode:normal;color-interpolation:sRGB;color-interpolation-filters:linearRGB;solid-color:#000000;solid-opacity:1;vector-effect:none;fill:#ffffff;fill-opacity:1;fill-rule:nonzero;stroke:none;stroke-width:5.6043;stroke-linecap:round;stroke-linejoin:round;stroke-miterlimit:80;stroke-dasharray:none;stroke-dashoffset:0;stroke-opacity:1;color-rendering:auto;image-rendering:auto;shape-rendering:auto;text-rendering:auto;enable-background:accumulate;stop-color:#000000"
       id="path3497" />
    <path
       inkscape:export-ydpi="96"
       inkscape:export-xdpi="96"
       d="M 67.804908,7.1781151 C 48.323484,7.8171304 29.120325,12.130952 11.196995,19.912739 c 3.521396,42.291833 23.890377,81.345821 56.464771,108.260051 0.04788,0.0385 0.09521,0.0774 0.143142,0.11576 C 100.3793,101.37432 120.74825,62.320327 124.26967,20.028494 106.39016,12.265774 87.237238,7.9549669 67.804908,7.2995548 Z"
       style="color:#000000;font-style:normal;font-variant:normal;font-weight:normal;font-stretch:normal;font-size:medium;line-height:normal;font-family:sans-serif;font-variant-ligatures:normal;font-variant-position:normal;font-variant-caps:normal;font-variant-numeric:normal;font-variant-alternates:normal;font-variant-east-asian:normal;font-feature-settings:normal;font-variation-settings:normal;text-indent:0;text-align:start;text-decoration:none;text-decoration-line:none;text-decoration-style:solid;text-decoration-color:#000000;letter-spacing:normal;word-spacing:normal;text-transform:none;writing-mode:lr-tb;direction:ltr;text-orientation:mixed;dominant-baseline:auto;baseline-shift:baseline;text-anchor:start;white-space:normal;shape-padding:0;shape-margin:0;inline-size:0;clip-rule:nonzero;display:inline;overflow:visible;visibility:visible;opacity:1;isolation:auto;mix-blend-mode:normal;color-interpolation:sRGB;color-interpolation-filters:linearRGB;solid-color:#000000;solid-opacity:1;vector-effect:none;fill:#00172b;fill-opacity:1;fill-rule:nonzero;stroke:none;stroke-width:5.37676;stroke-linecap:round;stroke-linejoin:round;stroke-miterlimit:80;stroke-dasharray:none;stroke-dashoffset:0;stroke-opacity:1;color-rendering:auto;image-rendering:auto;shape-rendering:auto;text-rendering:auto;enable-background:accumulate;stop-color:#000000"
       id="path3574" />
  </g>
  <g
     inkscape:groupmode="layer"
     id="layer4"
     inkscape:label="v"
     style="display:inline;opacity:1">
    <path
       d="m 42.458391,35.00303 a 16.31973,28.300108 29.312699 0 0 -0.0098,0.0078 16.31973,28.300108 29.312699 0 0 -0.175701,0.139525 16.31973,28.300108 29.312699 0 0 -0.1757,0.141079 16.31973,28.300108 29.312699 0 0 -0.175183,0.143142 16.31973,28.300108 29.312699 0 0 -0.174665,0.144695 16.31973,28.300108 29.312699 0 0 -0.174667,0.146243 16.31973,28.300108 29.312699 0 0 -0.174149,0.147794 16.31973,28.300108 29.312699 0 0 -0.173632,0.149863 16.31973,28.300108 29.312699 0 0 -0.173117,0.150894 16.31973,28.300108 29.312699 0 0 -0.173117,0.152964 16.31973,28.300108 29.312699 0 0 -0.172599,0.153995 16.31973,28.300108 29.312699 0 0 -0.172082,0.156062 16.31973,28.300108 29.312699 0 0 -0.171566,0.157096 16.31973,28.300108 29.312699 0 0 -0.171567,0.159166 16.31973,28.300108 29.312699 0 0 -0.170532,0.160713 16.31973,28.300108 29.312699 0 0 -0.170531,0.161748 16.31973,28.300108 29.312699 0 0 -0.170016,0.163814 16.31973,28.300108 29.312699 0 0 -0.168982,0.164846 16.31973,28.300108 29.312699 0 0 -0.168981,0.166399 16.31973,28.300108 29.312699 0 0 -0.16795,0.167947 16.31973,28.300108 29.312699 0 0 -0.167947,0.1695 16.31973,28.300108 29.312699 0 0 -0.166915,0.171048 16.31973,28.300108 29.312699 0 0 -0.166915,0.172082 16.31973,28.300108 29.312699 0 0 -0.16588,0.173635 16.31973,28.300108 29.312699 0 0 -0.165365,0.175181 16.31973,28.300108 29.312699 0 0 -0.164849,0.176734 16.31973,28.300108 29.312699 0 0 -0.163814,0.177768 16.31973,28.300108 29.312699 0 0 -0.163814,0.1788 16.31973,28.300108 29.312699 0 0 -0.162782,0.180867 16.31973,28.300108 29.312699 0 0 -0.161745,0.181901 16.31973,28.300108 29.312699 0 0 -0.161748,0.182935 16.31973,28.300108 29.312699 0 0 -0.160713,0.184486 16.31973,28.300108 29.312699 0 0 -0.160197,0.186034 16.31973,28.300108 29.312699 0 0 -0.159166,0.186552 16.31973,28.300108 29.312699 0 0 -0.158644,0.188619 16.31973,28.300108 29.312699 0 0 -0.157615,0.189135 16.31973,28.300108 29.312699 0 0 -0.157096,0.190688 16.31973,28.300108 29.312699 0 0 -0.156581,0.192236 16.31973,28.300108 29.312699 0 0 -0.155546,0.19327 16.31973,28.300108 29.312699 0 0 -0.154511,0.193786 16.31973,28.300108 29.312699 0 0 -0.153995,0.195852 16.31973,28.300108 29.312699 0 0 -0.152964,0.196371 16.31973,28.300108 29.312699 0 0 -0.152445,0.197922 16.31973,28.300108 29.312699 0 0 -0.15141,0.198438 16.31973,28.300108 29.312699 0 0 -0.150379,0.199988 16.31973,28.300108 29.312699 0 0 -0.149863,0.201019 16.31973,28.300108 29.312699 0 0 -0.148828,0.202055 16.31973,28.300108 29.312699 0 0 -0.147793,0.203089 16.31973,28.300108 29.312699 0 0 -0.147278,0.204123 16.31973,28.300108 29.312699 0 0 -0.145727,0.205155 16.31973,28.300108 29.312699 0 0 -0.145211,0.206187 16.31973,28.300108 29.312699 0 0 -0.14418,0.206706 16.31973,28.300108 29.312699 0 0 -0.143142,0.208256 16.31973,28.300108 29.312699 0 0 -0.142626,0.208775 16.31973,28.300108 29.312699 0 0 -0.141079,0.210323 16.31973,28.300108 29.312699 0 0 -0.140041,0.210838 16.31973,28.300108 29.312699 0 0 -0.139528,0.211357 16.31973,28.300108 29.312699 0 0 -0.138491,0.212908 16.31973,28.300108 29.312699 0 0 -0.136943,0.213423 16.31973,28.300108 29.312699 0 0 -0.136427,0.214458 16.31973,28.300108 29.312699 0 0 -0.134874,0.214974 16.31973,28.300108 29.312699 0 0 -0.134361,0.216006 16.31973,28.300108 29.312699 0 0 -0.132807,0.216525 16.31973,28.300108 29.312699 0 0 -0.132292,0.217558 16.31973,28.300108 29.312699 0 0 -0.02997,0.05013 l 15.712736,31.082858 19.212263,38.005424 v 0.54054 l 0.136428,-0.27027 0.13694,0.27027 v -0.54054 L 86.879966,77.689315 102.59271,46.606457 a 28.300108,16.319731 60.687301 0 0 -0.03,-0.05013 28.300108,16.319731 60.687301 0 0 -0.13229,-0.217558 28.300108,16.319731 60.687301 0 0 -0.13281,-0.216525 28.300108,16.319731 60.687301 0 0 -0.13435,-0.216006 28.300108,16.319731 60.687301 0 0 -0.13488,-0.214974 28.300108,16.319731 60.687301 0 0 -0.13642,-0.214458 28.300108,16.319731 60.687301 0 0 -0.13695,-0.213423 28.300108,16.319731 60.687301 0 0 -0.13849,-0.212908 28.300108,16.319731 60.687301 0 0 -0.13953,-0.211357 28.300108,16.319731 60.687301 0 0 -0.14004,-0.210838 28.300108,16.319731 60.687301 0 0 -0.14108,-0.210323 28.300108,16.319731 60.687301 0 0 -0.14263,-0.208775 28.300108,16.319731 60.687301 0 0 -0.14314,-0.208256 28.300108,16.319731 60.687301 0 0 -0.14417,-0.206706 28.300108,16.319731 60.687301 0 0 -0.14522,-0.206187 28.300108,16.319731 60.687301 0 0 -0.14573,-0.205155 28.300108,16.319731 60.687301 0 0 -0.14727,-0.204123 28.300108,16.319731 60.687301 0 0 -0.1478,-0.203089 28.300108,16.319731 60.687301 0 0 -0.14883,-0.202055 28.300108,16.319731 60.687301 0 0 -0.149858,-0.201019 28.300108,16.319731 60.687301 0 0 -0.150379,-0.199988 28.300108,16.319731 60.687301 0 0 -0.151413,-0.198438 28.300108,16.319731 60.687301 0 0 -0.152445,-0.197922 28.300108,16.319731 60.687301 0 0 -0.152963,-0.196371 28.300108,16.319731 60.687301 0 0 -0.153996,-0.195852 28.300108,16.319731 60.687301 0 0 -0.154511,-0.193786 28.300108,16.319731 60.687301 0 0 -0.155546,-0.19327 28.300108,16.319731 60.687301 0 0 -0.15658,-0.192236 A 28.300108,16.319731 60.687301 0 0 98.496292,40.814041 28.300108,16.319731 60.687301 0 0 98.33868,40.624906 28.300108,16.319731 60.687301 0 0 98.180033,40.436287 28.300108,16.319731 60.687301 0 0 98.02087,40.249735 28.300108,16.319731 60.687301 0 0 97.860673,40.063701 28.300108,16.319731 60.687301 0 0 97.69996,39.879215 28.300108,16.319731 60.687301 0 0 97.538212,39.69628 28.300108,16.319731 60.687301 0 0 97.376464,39.514379 28.300108,16.319731 60.687301 0 0 97.213685,39.333512 28.300108,16.319731 60.687301 0 0 97.049868,39.154712 28.300108,16.319731 60.687301 0 0 96.886054,38.976944 28.300108,16.319731 60.687301 0 0 96.721208,38.80021 28.300108,16.319731 60.687301 0 0 96.555843,38.625029 28.300108,16.319731 60.687301 0 0 96.38996,38.451394 28.300108,16.319731 60.687301 0 0 96.223045,38.279312 28.300108,16.319731 60.687301 0 0 96.056133,38.108264 28.300108,16.319731 60.687301 0 0 95.888183,37.938764 28.300108,16.319731 60.687301 0 0 95.720234,37.770817 28.300108,16.319731 60.687301 0 0 95.551252,37.604418 28.300108,16.319731 60.687301 0 0 95.382271,37.439572 28.300108,16.319731 60.687301 0 0 95.212255,37.275758 28.300108,16.319731 60.687301 0 0 95.041723,37.11401 28.300108,16.319731 60.687301 0 0 94.871191,36.953297 28.300108,16.319731 60.687301 0 0 94.699625,36.794131 28.300108,16.319731 60.687301 0 0 94.528058,36.637035 28.300108,16.319731 60.687301 0 0 94.355976,36.480973 28.300108,16.319731 60.687301 0 0 94.183378,36.326978 28.300108,16.319731 60.687301 0 0 94.010261,36.174014 28.300108,16.319731 60.687301 0 0 93.837146,36.02312 28.300108,16.319731 60.687301 0 0 93.663514,35.873257 28.300108,16.319731 60.687301 0 0 93.489362,35.725463 28.300108,16.319731 60.687301 0 0 93.314698,35.57922 28.300108,16.319731 60.687301 0 0 93.14003,35.434525 a 28.300108,16.319731 60.687301 0 0 -0.175183,-0.143142 28.300108,16.319731 60.687301 0 0 -0.175699,-0.141079 28.300108,16.319731 60.687301 0 0 -0.175699,-0.139525 28.300108,16.319731 60.687301 0 0 -0.0098,-0.0078 L 76.587572,66.685334 67.530763,84.601036 58.474467,66.685334 Z"
       style="opacity:1;fill:#ffffff;stroke:none;stroke-width:8.1294;stroke-linecap:round;stroke-linejoin:round;paint-order:fill markers stroke"
       id="rect855" />
    <path
       sodipodi:nodetypes="cccccccccccccc"
       d="m 37.199783,13.061915 -0.04393,0.01654 c -0.0024,0.0081 -0.0043,0.01521 -0.0067,0.02326 0.01716,-0.01309 0.03347,-0.02671 0.05064,-0.03979 z m -0.05064,0.03979 c -2.101109,1.602408 -4.081042,3.274279 -5.886463,4.983159 v -5.17e-4 c -0.252945,0.243797 -0.517851,0.49399 -0.768946,0.74104 -7.703804,7.467705 -9.465029,14.43704 -7.813992,19.578132 2.040392,3.771697 3.417998,5.422516 8.986392,7.610578 3.045282,-4.529568 6.601474,-8.652917 10.314061,-11.632979 -3.206612,-1.862359 -5.813829,-2.897388 -6.956503,-6.500986 -1.017019,-4.137634 0.240419,-8.439701 2.125451,-14.778427 z"
       style="display:inline;fill:#ffffff;fill-opacity:1;stroke-width:0.294243"
       id="path867" />
    <path
       id="path1048"
       style="display:inline;fill:#ffffff;fill-opacity:1;stroke-width:0.294243"
       d="m 97.801111,13.061915 0.04393,0.01654 c 0.0024,0.0081 0.0043,0.01521 0.0067,0.02326 -0.01716,-0.01309 -0.03347,-0.02671 -0.05064,-0.03979 z m 0.05064,0.03979 c 2.101109,1.602408 4.081049,3.274279 5.886479,4.983159 v -5.17e-4 c 0.25295,0.243797 0.51786,0.49399 0.76895,0.74104 7.70385,7.467705 9.46509,14.43704 7.81404,19.578132 -2.0404,3.771697 -3.41802,5.422516 -8.98644,7.610578 -3.0453,-4.529568 -6.601494,-8.652917 -10.314081,-11.632979 3.206612,-1.862359 5.813829,-2.897388 6.956503,-6.500986 1.017018,-4.137634 -0.240419,-8.439701 -2.125451,-14.778427 z"
       sodipodi:nodetypes="cccccccccccccc" />
  </g>
  <g
     inkscape:groupmode="layer"
     id="layer2"
     inkscape:label="Letter M"
     style="display:inline">
    <path
       d="m 46.426623,35.429877 c 2.91e-4,4.08e-4 7.59e-4,6.3e-4 10e-4,0.001 6.72e-4,-3.7e-4 0.0015,-6.69e-4 0.0021,-0.001 z m 10e-4,0.001 c -6.388045,3.524223 -11.743428,11.241691 -13.85135,17.943608 -3.285448,10.464479 -2.615015,23.71754 1.764233,34.553961 0.141523,0.360045 0.293069,0.718391 0.434597,1.072803 1.05033,2.48135 2.285008,4.815866 3.664894,6.961849 C 36.19174,86.752092 36.306268,76.699172 38.915419,68.399407 40.92207,61.772066 44.459033,56.36852 48.83626,52.916631 54.631632,60.291582 62.286427,66.87033 67.777741,74.390256 73.269054,66.87033 80.923846,60.291582 86.719219,52.916631 c 4.377229,3.451889 7.914193,8.855435 9.920843,15.482776 2.609149,8.299765 2.723676,18.352685 0.475422,27.563691 1.379884,-2.145983 2.614565,-4.480499 3.664896,-6.961849 0.14153,-0.354412 0.29307,-0.712758 0.4346,-1.072803 4.37931,-10.836386 5.04973,-24.089447 1.76427,-34.553926 -2.10794,-6.701917 -7.463315,-14.419385 -13.851357,-17.943608 2.76e-4,-4.05e-4 2.25e-4,-6.27e-4 5.16e-4,-10e-4 h -0.0026 c 4.79e-4,2.92e-4 10e-4,7.39e-4 0.0016,10e-4 -6.843284,9.638003 -14.119881,18.818003 -21.348568,28.06392 -2.96e-4,-3.92e-4 -7.25e-4,-6.38e-4 -0.001,-0.001 -3.1e-4,3.97e-4 -7.41e-4,6.43e-4 -10e-4,0.001 C 60.548055,54.248915 53.270939,45.068915 46.427658,35.430912 Z"
       style="display:inline;opacity:1;fill:#fa2b55;fill-opacity:1;stroke-width:0.376126"
       id="path197" />
  </g>
</svg>
