<?xml version="1.0" encoding="UTF-8" standalone="no"?>
<svg
   xmlns:dc="http://purl.org/dc/elements/1.1/"
   xmlns:cc="http://creativecommons.org/ns#"
   xmlns:rdf="http://www.w3.org/1999/02/22-rdf-syntax-ns#"
   xmlns:svg="http://www.w3.org/2000/svg"
   xmlns="http://www.w3.org/2000/svg"
   xmlns:sodipodi="http://sodipodi.sourceforge.net/DTD/sodipodi-0.dtd"
   xmlns:inkscape="http://www.inkscape.org/namespaces/inkscape"
   inkscape:export-ydpi="96"
   inkscape:export-xdpi="96"
   inkscape:export-filename="/Users/vimalmenon/code/java/new-vimalmenon.com/assets/image/logo_social_media.png"
   width="512"
   height="512"
   viewBox="0 0 135.46666 135.46667"
   version="1.1"
   id="svg889"
   inkscape:version="1.0 (4035a4f, 2020-05-01)"
   sodipodi:docname="logo_social_media.svg">
  <defs
     id="defs883" />
  <sodipodi:namedview
     id="base"
     pagecolor="#ffffff"
     bordercolor="#666666"
     borderopacity="1.0"
     inkscape:pageopacity="0.0"
     inkscape:pageshadow="2"
     inkscape:zoom="1.2912503"
     inkscape:cx="216.99947"
     inkscape:cy="333.25641"
     inkscape:document-units="mm"
     inkscape:current-layer="layer2"
     inkscape:document-rotation="0"
     showgrid="false"
     units="px"
     inkscape:window-width="1792"
     inkscape:window-height="1092"
     inkscape:window-x="0"
     inkscape:window-y="28"
     inkscape:window-maximized="0"
     inkscape:pagecheckerboard="true" />
  <metadata
     id="metadata886">
    <rdf:RDF>
      <cc:Work
         rdf:about="">
        <dc:format>image/svg+xml</dc:format>
        <dc:type
           rdf:resource="http://purl.org/dc/dcmitype/StillImage" />
        <dc:title></dc:title>
      </cc:Work>
    </rdf:RDF>
  </metadata>
  <g
     inkscape:label="circle"
     id="layer6"
     inkscape:groupmode="layer">
    <circle
       r="57.5"
       cy="67.73333"
       cx="67.73333"
       id="path2694"
       style="opacity:1;fill:#ffffff;stroke-width:7.34805;stroke-linecap:round;stroke-linejoin:round;paint-order:fill markers stroke" />
  </g>
  <g
     inkscape:label="Main"
     inkscape:groupmode="layer"
     id="layer1"
     style="display:inline;opacity:1" />
  <g
     inkscape:groupmode="layer"
     id="layer4"
     inkscape:label="v"
     style="display:inline;opacity:1" />
  <g
     inkscape:groupmode="layer"
     id="layer2"
     inkscape:label="Letter M"
     style="display:inline">
    <g
       transform="translate(0,5.8208336)"
       id="g2708">
      <path
         id="path3568"
         style="color:#000000;font-style:normal;font-variant:normal;font-weight:normal;font-stretch:normal;font-size:medium;line-height:normal;font-family:sans-serif;font-variant-ligatures:normal;font-variant-position:normal;font-variant-caps:normal;font-variant-numeric:normal;font-variant-alternates:normal;font-variant-east-asian:normal;font-feature-settings:normal;font-variation-settings:normal;text-indent:0;text-align:start;text-decoration:none;text-decoration-line:none;text-decoration-style:solid;text-decoration-color:#000000;letter-spacing:normal;word-spacing:normal;text-transform:none;writing-mode:lr-tb;direction:ltr;text-orientation:mixed;dominant-baseline:auto;baseline-shift:baseline;text-anchor:start;white-space:normal;shape-padding:0;shape-margin:0;inline-size:0;clip-rule:nonzero;display:inline;overflow:visible;visibility:visible;opacity:1;isolation:auto;mix-blend-mode:normal;color-interpolation:sRGB;color-interpolation-filters:linearRGB;solid-color:#000000;solid-opacity:1;vector-effect:none;fill:#00172b;fill-opacity:1;fill-rule:nonzero;stroke:none;stroke-width:4.08738;stroke-linecap:round;stroke-linejoin:round;stroke-miterlimit:80;stroke-dasharray:none;stroke-dashoffset:0;stroke-opacity:1;color-rendering:auto;image-rendering:auto;shape-rendering:auto;text-rendering:auto;enable-background:accumulate;stop-color:#000000"
         d="m 67.678895,17.878168 v 0.0047 C 52.497486,18.447892 37.539383,21.81011 23.567206,27.827135 v 0.0016 c -1.606567,0.692406 -2.602366,2.350595 -2.456044,4.092731 2.780134,33.118015 18.864237,63.703873 44.581606,84.779924 h 0.0012 c 0.583442,0.478 1.272806,0.76507 1.984956,0.87043 v 0.0167 c 0.01815,-0.003 0.03609,-0.006 0.0542,-0.009 0.01811,0.003 0.03606,0.006 0.0542,0.009 v -0.0167 c 0.712151,-0.10536 1.401515,-0.39243 1.98496,-0.87043 h 0.0012 C 95.490906,95.625319 111.57537,65.039424 114.3555,31.921437 114.50183,30.1793 113.50604,28.521111 111.89946,27.82868 v -0.0016 C 97.927134,21.810109 82.96872,18.447892 67.787306,17.882847 v -0.0047 c -0.01807,6.56e-4 -0.03613,0.0017 -0.0542,0.0023 -0.01807,-6.66e-4 -0.03613,-0.0017 -0.0542,-0.0023 z"
         inkscape:export-xdpi="96"
         inkscape:export-ydpi="96" />
      <path
         id="path3497"
         style="color:#000000;font-style:normal;font-variant:normal;font-weight:normal;font-stretch:normal;font-size:medium;line-height:normal;font-family:sans-serif;font-variant-ligatures:normal;font-variant-position:normal;font-variant-caps:normal;font-variant-numeric:normal;font-variant-alternates:normal;font-variant-east-asian:normal;font-feature-settings:normal;font-variation-settings:normal;text-indent:0;text-align:start;text-decoration:none;text-decoration-line:none;text-decoration-style:solid;text-decoration-color:#000000;letter-spacing:normal;word-spacing:normal;text-transform:none;writing-mode:lr-tb;direction:ltr;text-orientation:mixed;dominant-baseline:auto;baseline-shift:baseline;text-anchor:start;white-space:normal;shape-padding:0;shape-margin:0;inline-size:0;clip-rule:nonzero;display:inline;overflow:visible;visibility:visible;opacity:1;isolation:auto;mix-blend-mode:normal;color-interpolation:sRGB;color-interpolation-filters:linearRGB;solid-color:#000000;solid-opacity:1;vector-effect:none;fill:#ffffff;fill-opacity:1;fill-rule:nonzero;stroke:none;stroke-width:4.22924;stroke-linecap:round;stroke-linejoin:round;stroke-miterlimit:80;stroke-dasharray:none;stroke-dashoffset:0;stroke-opacity:1;color-rendering:auto;image-rendering:auto;shape-rendering:auto;text-rendering:auto;enable-background:accumulate;stop-color:#000000"
         d="m 67.730017,20.488224 c -15.23295,0.550974 -30.242844,3.922483 -44.261436,9.959496 2.769056,32.986094 18.730134,63.456303 44.261436,84.53072 z m 0.0062,0 V 114.97844 C 93.267559,93.904023 109.22901,63.433814 111.99809,30.44772 97.979406,24.410706 82.969212,21.039198 67.736257,20.488224 Z"
         inkscape:export-xdpi="96"
         inkscape:export-ydpi="96" />
      <path
         id="path3574"
         style="color:#000000;font-style:normal;font-variant:normal;font-weight:normal;font-stretch:normal;font-size:medium;line-height:normal;font-family:sans-serif;font-variant-ligatures:normal;font-variant-position:normal;font-variant-caps:normal;font-variant-numeric:normal;font-variant-alternates:normal;font-variant-east-asian:normal;font-feature-settings:normal;font-variation-settings:normal;text-indent:0;text-align:start;text-decoration:none;text-decoration-line:none;text-decoration-style:solid;text-decoration-color:#000000;letter-spacing:normal;word-spacing:normal;text-transform:none;writing-mode:lr-tb;direction:ltr;text-orientation:mixed;dominant-baseline:auto;baseline-shift:baseline;text-anchor:start;white-space:normal;shape-padding:0;shape-margin:0;inline-size:0;clip-rule:nonzero;display:inline;overflow:visible;visibility:visible;opacity:1;isolation:auto;mix-blend-mode:normal;color-interpolation:sRGB;color-interpolation-filters:linearRGB;solid-color:#000000;solid-opacity:1;vector-effect:none;fill:#00172b;fill-opacity:1;fill-rule:nonzero;stroke:none;stroke-width:4.05753;stroke-linecap:round;stroke-linejoin:round;stroke-miterlimit:80;stroke-dasharray:none;stroke-dashoffset:0;stroke-opacity:1;color-rendering:auto;image-rendering:auto;shape-rendering:auto;text-rendering:auto;enable-background:accumulate;stop-color:#000000"
         d="m 67.78735,22.035851 c -14.701501,0.482228 -29.193011,3.737619 -42.718708,9.610082 2.657393,31.915193 18.028681,61.38697 42.610688,81.697587 0.03613,0.029 0.07185,0.0584 0.10802,0.0873 C 92.369358,93.120263 107.74062,63.64848 110.39802,31.733286 96.905405,25.875212 82.451802,22.622096 67.78735,22.127494 Z"
         inkscape:export-xdpi="96"
         inkscape:export-ydpi="96" />
      <g
         id="g1903"
         transform="matrix(0.85371348,0,0,0.81776543,3.9616268,6.6644228)"
         inkscape:export-xdpi="96"
         inkscape:export-ydpi="96">
        <g
           id="g1892"
           style="display:inline;opacity:1">
          <path
             id="rect855"
             style="opacity:1;fill:#ffffff;stroke:none;stroke-width:7.186;stroke-linecap:round;stroke-linejoin:round;paint-order:fill markers stroke"
             d="m 52.563156,46.467962 a 14.425863,25.015945 29.312699 0 0 -0.0087,0.0069 14.425863,25.015945 29.312699 0 0 -0.155312,0.123334 14.425863,25.015945 29.312699 0 0 -0.15531,0.124707 14.425863,25.015945 29.312699 0 0 -0.154853,0.126531 14.425863,25.015945 29.312699 0 0 -0.154396,0.127903 14.425863,25.015945 29.312699 0 0 -0.154397,0.129272 14.425863,25.015945 29.312699 0 0 -0.15394,0.130643 14.425863,25.015945 29.312699 0 0 -0.153482,0.132472 14.425863,25.015945 29.312699 0 0 -0.153027,0.133383 14.425863,25.015945 29.312699 0 0 -0.153027,0.135213 14.425863,25.015945 29.312699 0 0 -0.15257,0.136124 14.425863,25.015945 29.312699 0 0 -0.152112,0.137951 14.425863,25.015945 29.312699 0 0 -0.151656,0.138865 14.425863,25.015945 29.312699 0 0 -0.151657,0.140696 14.425863,25.015945 29.312699 0 0 -0.150742,0.142062 14.425863,25.015945 29.312699 0 0 -0.150742,0.142978 14.425863,25.015945 29.312699 0 0 -0.150286,0.144804 14.425863,25.015945 29.312699 0 0 -0.149372,0.145716 14.425863,25.015945 29.312699 0 0 -0.149371,0.147088 14.425863,25.015945 29.312699 0 0 -0.14846,0.148457 14.425863,25.015945 29.312699 0 0 -0.148457,0.14983 14.425863,25.015945 29.312699 0 0 -0.147545,0.151199 14.425863,25.015945 29.312699 0 0 -0.147545,0.152112 14.425863,25.015945 29.312699 0 0 -0.14663,0.153485 14.425863,25.015945 29.312699 0 0 -0.146174,0.154852 14.425863,25.015945 29.312699 0 0 -0.145719,0.156224 14.425863,25.015945 29.312699 0 0 -0.144804,0.157138 14.425863,25.015945 29.312699 0 0 -0.144803,0.158051 14.425863,25.015945 29.312699 0 0 -0.143892,0.159878 14.425863,25.015945 29.312699 0 0 -0.142975,0.160792 14.425863,25.015945 29.312699 0 0 -0.142977,0.161706 14.425863,25.015945 29.312699 0 0 -0.142063,0.163076 14.425863,25.015945 29.312699 0 0 -0.141606,0.164446 14.425863,25.015945 29.312699 0 0 -0.140696,0.164903 14.425863,25.015945 29.312699 0 0 -0.140233,0.16673 14.425863,25.015945 29.312699 0 0 -0.139325,0.167186 14.425863,25.015945 29.312699 0 0 -0.138865,0.168559 14.425863,25.015945 29.312699 0 0 -0.13841,0.169928 14.425863,25.015945 29.312699 0 0 -0.137495,0.170841 14.425863,25.015945 29.312699 0 0 -0.136581,0.171298 14.425863,25.015945 29.312699 0 0 -0.136124,0.173124 14.425863,25.015945 29.312699 0 0 -0.135213,0.173582 14.425863,25.015945 29.312699 0 0 -0.134754,0.174954 14.425863,25.015945 29.312699 0 0 -0.133839,0.17541 14.425863,25.015945 29.312699 0 0 -0.132928,0.176779 14.425863,25.015945 29.312699 0 0 -0.132472,0.177692 14.425863,25.015945 29.312699 0 0 -0.131557,0.178607 14.425863,25.015945 29.312699 0 0 -0.130641,0.179521 14.425863,25.015945 29.312699 0 0 -0.130187,0.180435 14.425863,25.015945 29.312699 0 0 -0.128816,0.181347 14.425863,25.015945 29.312699 0 0 -0.12836,0.182259 14.425863,25.015945 29.312699 0 0 -0.127448,0.182718 14.425863,25.015945 29.312699 0 0 -0.12653,0.184089 14.425863,25.015945 29.312699 0 0 -0.126075,0.184547 14.425863,25.015945 29.312699 0 0 -0.124707,0.185916 14.425863,25.015945 29.312699 0 0 -0.12379,0.18637 14.425863,25.015945 29.312699 0 0 -0.123336,0.18683 14.425863,25.015945 29.312699 0 0 -0.122419,0.1882 14.425863,25.015945 29.312699 0 0 -0.121051,0.188656 14.425863,25.015945 29.312699 0 0 -0.120595,0.189571 14.425863,25.015945 29.312699 0 0 -0.119222,0.190026 14.425863,25.015945 29.312699 0 0 -0.118769,0.190939 14.425863,25.015945 29.312699 0 0 -0.117395,0.191398 14.425863,25.015945 29.312699 0 0 -0.11694,0.192311 14.425863,25.015945 29.312699 0 0 -0.02649,0.04431 l 13.889345,27.47576 16.982724,33.594984 v 0.47781 l 0.120596,-0.23891 0.121048,0.23891 v -0.47781 L 91.82971,84.200601 105.71903,56.724838 a 25.015945,14.425864 60.687301 0 0 -0.0265,-0.04431 25.015945,14.425864 60.687301 0 0 -0.11694,-0.192311 25.015945,14.425864 60.687301 0 0 -0.1174,-0.191398 25.015945,14.425864 60.687301 0 0 -0.11876,-0.190939 25.015945,14.425864 60.687301 0 0 -0.11922,-0.190026 25.015945,14.425864 60.687301 0 0 -0.12059,-0.189571 25.015945,14.425864 60.687301 0 0 -0.12106,-0.188656 25.015945,14.425864 60.687301 0 0 -0.12242,-0.1882 25.015945,14.425864 60.687301 0 0 -0.12334,-0.18683 25.015945,14.425864 60.687301 0 0 -0.12379,-0.186371 25.015945,14.425864 60.687301 0 0 -0.1247,-0.185915 25.015945,14.425864 60.687301 0 0 -0.12608,-0.184547 25.015945,14.425864 60.687301 0 0 -0.12653,-0.184089 25.015945,14.425864 60.687301 0 0 -0.12744,-0.182718 25.015945,14.425864 60.687301 0 0 -0.12837,-0.182259 25.015945,14.425864 60.687301 0 0 -0.12882,-0.181348 25.015945,14.425864 60.687301 0 0 -0.13018,-0.180435 25.015945,14.425864 60.687301 0 0 -0.13064,-0.179521 25.015945,14.425864 60.687301 0 0 -0.13156,-0.178606 25.015945,14.425864 60.687301 0 0 -0.13247,-0.177692 25.015945,14.425864 60.687301 0 0 -0.13293,-0.17678 25.015945,14.425864 60.687301 0 0 -0.13384,-0.175409 25.015945,14.425864 60.687301 0 0 -0.13475,-0.174954 25.015945,14.425864 60.687301 0 0 -0.13522,-0.173582 25.015945,14.425864 60.687301 0 0 -0.13612,-0.173124 25.015945,14.425864 60.687301 0 0 -0.13658,-0.171298 25.015945,14.425864 60.687301 0 0 -0.1375,-0.170841 25.015945,14.425864 60.687301 0 0 -0.13841,-0.169928 25.015945,14.425864 60.687301 0 0 -0.13886,-0.168559 25.015945,14.425864 60.687301 0 0 -0.13932,-0.167186 25.015945,14.425864 60.687301 0 0 -0.14024,-0.16673 25.015945,14.425864 60.687301 0 0 -0.14069,-0.164903 25.015945,14.425864 60.687301 0 0 -0.14161,-0.164446 25.015945,14.425864 60.687301 0 0 -0.14206,-0.163076 25.015945,14.425864 60.687301 0 0 -0.14298,-0.161706 25.015945,14.425864 60.687301 0 0 -0.14298,-0.160792 25.015945,14.425864 60.687301 0 0 -0.14389,-0.159878 25.015945,14.425864 60.687301 0 0 -0.1448,-0.158051 25.015945,14.425864 60.687301 0 0 -0.14481,-0.157138 25.015945,14.425864 60.687301 0 0 -0.14571,-0.156224 25.015945,14.425864 60.687301 0 0 -0.14618,-0.154852 25.015945,14.425864 60.687301 0 0 -0.14663,-0.153485 25.015945,14.425864 60.687301 0 0 -0.14754,-0.152112 25.015945,14.425864 60.687301 0 0 -0.147546,-0.151199 25.015945,14.425864 60.687301 0 0 -0.14846,-0.14983 25.015945,14.425864 60.687301 0 0 -0.148459,-0.148457 25.015945,14.425864 60.687301 0 0 -0.149372,-0.147089 25.015945,14.425864 60.687301 0 0 -0.149371,-0.145716 25.015945,14.425864 60.687301 0 0 -0.150286,-0.144803 25.015945,14.425864 60.687301 0 0 -0.150742,-0.142978 25.015945,14.425864 60.687301 0 0 -0.150743,-0.142062 25.015945,14.425864 60.687301 0 0 -0.151656,-0.140696 25.015945,14.425864 60.687301 0 0 -0.151657,-0.138865 25.015945,14.425864 60.687301 0 0 -0.152112,-0.137951 25.015945,14.425864 60.687301 0 0 -0.152568,-0.136125 25.015945,14.425864 60.687301 0 0 -0.153028,-0.135212 25.015945,14.425864 60.687301 0 0 -0.153025,-0.133384 25.015945,14.425864 60.687301 0 0 -0.153482,-0.132471 25.015945,14.425864 60.687301 0 0 -0.153942,-0.130643 25.015945,14.425864 60.687301 0 0 -0.154395,-0.129272 25.015945,14.425864 60.687301 0 0 -0.154398,-0.127903 25.015945,14.425864 60.687301 0 0 -0.154854,-0.126531 25.015945,14.425864 60.687301 0 0 -0.155309,-0.124707 25.015945,14.425864 60.687301 0 0 -0.15531,-0.123334 25.015945,14.425864 60.687301 0 0 -0.0087,-0.0069 L 82.731724,74.473607 74.725937,90.310233 66.720604,74.473607 Z" />
          <path
             id="path867"
             style="display:inline;fill:#ffffff;fill-opacity:1;stroke-width:0.260097"
             d="m 47.914798,27.073063 -0.03883,0.01462 c -0.0021,0.0072 -0.0038,0.01345 -0.0059,0.02056 0.01517,-0.01157 0.02959,-0.02361 0.04476,-0.03517 z m -0.04476,0.03517 c -1.85728,1.416452 -3.607446,2.894306 -5.203352,4.404875 v -4.57e-4 c -0.223591,0.215505 -0.457756,0.436663 -0.679712,0.655044 -6.809795,6.601095 -8.366634,12.761655 -6.907196,17.306135 1.803609,3.334 3.021347,4.793245 7.943542,6.727388 2.691884,-4.003922 5.835388,-7.648766 9.117138,-10.282999 -2.834492,-1.646236 -5.139148,-2.561153 -6.149217,-5.746561 -0.898996,-3.657472 0.212519,-7.460294 1.878797,-13.063425 z"
             sodipodi:nodetypes="cccccccccccccc" />
          <path
             sodipodi:nodetypes="cccccccccccccc"
             d="m 101.48348,27.073063 0.0388,0.01462 c 0.002,0.0072 0.004,0.01345 0.006,0.02056 -0.0152,-0.01157 -0.0296,-0.02361 -0.0448,-0.03517 z m 0.0448,0.03517 c 1.85728,1.416452 3.60746,2.894306 5.20337,4.404875 v -4.57e-4 c 0.2236,0.215505 0.45776,0.436663 0.67972,0.655044 6.80983,6.601095 8.36668,12.761655 6.90723,17.306135 -1.80361,3.334 -3.02136,4.793245 -7.94358,6.727388 -2.6919,-4.003922 -5.83541,-7.648766 -9.117155,-10.282999 2.834495,-1.646236 5.139145,-2.561153 6.149215,-5.746561 0.899,-3.657472 -0.21252,-7.460294 -1.8788,-13.063425 z"
             style="display:inline;fill:#ffffff;fill-opacity:1;stroke-width:0.260097"
             id="path1048" />
        </g>
        <path
           d="m 56.070884,46.845274 c 2.57e-4,3.61e-4 6.71e-4,5.57e-4 8.84e-4,8.84e-4 5.94e-4,-3.27e-4 0.0013,-5.91e-4 0.0019,-8.84e-4 z m 8.84e-4,8.84e-4 c -5.646727,3.115245 -10.38063,9.937119 -12.243932,15.861293 -2.90418,9.250101 -2.311549,20.965174 1.559497,30.544054 0.1251,0.318262 0.259059,0.635023 0.384163,0.948306 0.928442,2.193395 2.019838,4.256996 3.239592,6.153939 -1.987352,-8.142086 -1.886115,-17.028388 0.42025,-24.364984 1.773784,-5.858254 4.900291,-10.63473 8.76955,-13.686036 5.122833,6.519105 11.889306,12.334405 16.743366,18.98166 4.854059,-6.647255 11.62053,-12.462555 16.743363,-18.98166 3.869262,3.051306 6.995769,7.827782 8.769553,13.686036 2.30636,7.336596 2.4076,16.222898 0.42025,24.364984 1.21975,-1.896943 2.31115,-3.960544 3.23959,-6.153939 0.12511,-0.313283 0.25906,-0.630044 0.38417,-0.948306 3.8711,-9.578849 4.46372,-21.293922 1.55953,-30.544023 -1.86332,-5.924175 -6.597216,-12.746048 -12.24394,-15.861293 2.44e-4,-3.58e-4 1.99e-4,-5.54e-4 4.56e-4,-8.84e-4 h -0.0023 c 4.23e-4,2.58e-4 8.84e-4,6.53e-4 0.0014,8.84e-4 -6.049136,8.519535 -12.481301,16.634217 -18.871116,24.807166 -2.61e-4,-3.46e-4 -6.4e-4,-5.64e-4 -8.84e-4,-8.84e-4 -2.74e-4,3.51e-4 -6.55e-4,5.69e-4 -8.83e-4,8.84e-4 C 68.553557,63.480406 62.120933,55.365724 56.071799,46.846189 Z"
           style="display:inline;opacity:1;fill:#fa2b55;fill-opacity:1;stroke-width:0.332477"
           id="path197" />
      </g>
    </g>
  </g>
</svg>
