<?xml version="1.0" encoding="UTF-8" standalone="no"?>
<svg
   xmlns:dc="http://purl.org/dc/elements/1.1/"
   xmlns:cc="http://creativecommons.org/ns#"
   xmlns:rdf="http://www.w3.org/1999/02/22-rdf-syntax-ns#"
   xmlns:svg="http://www.w3.org/2000/svg"
   xmlns="http://www.w3.org/2000/svg"
   xmlns:sodipodi="http://sodipodi.sourceforge.net/DTD/sodipodi-0.dtd"
   xmlns:inkscape="http://www.inkscape.org/namespaces/inkscape"
   inkscape:version="1.0 (4035a4f, 2020-05-01)"
   sodipodi:docname="new_dark.svg"
   id="svg2021"
   version="1.1"
   viewBox="0 0 48.154166 13.229167"
   height="50"
   width="182"
   inkscape:export-filename="/Users/vimalmenon/code/java/new-vimalmenon.com/assets/image/logo/new_dark.png"
   inkscape:export-xdpi="288"
   inkscape:export-ydpi="288">
  <defs
     id="defs2015" />
  <sodipodi:namedview
     inkscape:guide-bbox="true"
     showguides="true"
     inkscape:window-maximized="0"
     inkscape:window-y="28"
     inkscape:window-x="0"
     inkscape:window-height="1092"
     inkscape:window-width="1792"
     inkscape:pagecheckerboard="true"
     units="px"
     showgrid="false"
     inkscape:document-rotation="0"
     inkscape:current-layer="layer1"
     inkscape:document-units="mm"
     inkscape:cy="-17.951861"
     inkscape:cx="56.642347"
     inkscape:zoom="4.6962845"
     inkscape:pageshadow="2"
     inkscape:pageopacity="0.0"
     borderopacity="1.0"
     bordercolor="#666666"
     pagecolor="#ffffff"
     id="base">
    <sodipodi:guide
       id="guide2710"
       orientation="-0.70710678,-0.70710678"
       position="70.886574,40.63288" />
  </sodipodi:namedview>
  <metadata
     id="metadata2018">
    <rdf:RDF>
      <cc:Work
         rdf:about="">
        <dc:format>image/svg+xml</dc:format>
        <dc:type
           rdf:resource="http://purl.org/dc/dcmitype/StillImage" />
        <dc:title></dc:title>
      </cc:Work>
    </rdf:RDF>
  </metadata>
  <g
     id="layer1"
     inkscape:groupmode="layer"
     inkscape:label="Layer 1">
    <path
       id="rect855"
       style="fill:#ffffff;fill-opacity:1;stroke:none;stroke-width:0.709527;stroke-linecap:round;stroke-linejoin:round;paint-order:fill markers stroke"
       d="m 3.7491238,4.0019566 a 1.4170176,2.4828301 28.383369 0 0 -8.508e-4,6.879e-4 1.4170176,2.4828301 28.383369 0 0 -0.015187,0.012296 1.4170176,2.4828301 28.383369 0 0 -0.015187,0.012433 1.4170176,2.4828301 28.383369 0 0 -0.015142,0.012615 1.4170176,2.4828301 28.383369 0 0 -0.015098,0.012752 1.4170176,2.4828301 28.383369 0 0 -0.015098,0.012888 1.4170176,2.4828301 28.383369 0 0 -0.015053,0.013025 1.4170176,2.4828301 28.383369 0 0 -0.015008,0.013207 1.4170176,2.4828301 28.383369 0 0 -0.014964,0.013298 1.4170176,2.4828301 28.383369 0 0 -0.014964,0.013481 1.4170176,2.4828301 28.383369 0 0 -0.014919,0.013571 1.4170176,2.4828301 28.383369 0 0 -0.014874,0.013753 1.4170176,2.4828301 28.383369 0 0 -0.01483,0.013845 1.4170176,2.4828301 28.383369 0 0 -0.01483,0.014027 1.4170176,2.4828301 28.383369 0 0 -0.01474,0.014163 1.4170176,2.4828301 28.383369 0 0 -0.01474,0.014255 1.4170176,2.4828301 28.383369 0 0 -0.014696,0.014437 1.4170176,2.4828301 28.383369 0 0 -0.014607,0.014528 1.4170176,2.4828301 28.383369 0 0 -0.014606,0.014664 1.4170176,2.4828301 28.383369 0 0 -0.014517,0.014801 1.4170176,2.4828301 28.383369 0 0 -0.014517,0.014938 1.4170176,2.4828301 28.383369 0 0 -0.014428,0.015074 1.4170176,2.4828301 28.383369 0 0 -0.014428,0.015165 1.4170176,2.4828301 28.383369 0 0 -0.014338,0.015302 1.4170176,2.4828301 28.383369 0 0 -0.014294,0.015439 1.4170176,2.4828301 28.383369 0 0 -0.014249,0.015575 1.4170176,2.4828301 28.383369 0 0 -0.01416,0.015666 1.4170176,2.4828301 28.383369 0 0 -0.01416,0.015757 1.4170176,2.4828301 28.383369 0 0 -0.01407,0.015939 1.4170176,2.4828301 28.383369 0 0 -0.013981,0.016031 1.4170176,2.4828301 28.383369 0 0 -0.013981,0.016122 1.4170176,2.4828301 28.383369 0 0 -0.013892,0.016258 1.4170176,2.4828301 28.383369 0 0 -0.013847,0.016395 1.4170176,2.4828301 28.383369 0 0 -0.013758,0.016441 1.4170176,2.4828301 28.383369 0 0 -0.013713,0.016623 1.4170176,2.4828301 28.383369 0 0 -0.013624,0.016668 1.4170176,2.4828301 28.383369 0 0 -0.013579,0.016805 1.4170176,2.4828301 28.383369 0 0 -0.013535,0.016942 1.4170176,2.4828301 28.383369 0 0 -0.013445,0.017033 1.4170176,2.4828301 28.383369 0 0 -0.013356,0.017078 1.4170176,2.4828301 28.383369 0 0 -0.013311,0.01726 1.4170176,2.4828301 28.383369 0 0 -0.013222,0.017306 1.4170176,2.4828301 28.383369 0 0 -0.013177,0.017443 1.4170176,2.4828301 28.383369 0 0 -0.013088,0.017488 1.4170176,2.4828301 28.383369 0 0 -0.012999,0.017625 1.4170176,2.4828301 28.383369 0 0 -0.012954,0.017716 1.4170176,2.4828301 28.383369 0 0 -0.012864,0.017807 1.4170176,2.4828301 28.383369 0 0 -0.012775,0.017898 1.4170176,2.4828301 28.383369 0 0 -0.01273,0.017989 1.4170176,2.4828301 28.383369 0 0 -0.012596,0.01808 1.4170176,2.4828301 28.383369 0 0 -0.012552,0.018171 1.4170176,2.4828301 28.383369 0 0 -0.012463,0.018217 1.4170176,2.4828301 28.383369 0 0 -0.012373,0.018353 1.4170176,2.4828301 28.383369 0 0 -0.012328,0.018399 1.4170176,2.4828301 28.383369 0 0 -0.012195,0.018536 1.4170176,2.4828301 28.383369 0 0 -0.012105,0.018581 1.4170176,2.4828301 28.383369 0 0 -0.012061,0.018627 1.4170176,2.4828301 28.383369 0 0 -0.011971,0.018763 1.4170176,2.4828301 28.383369 0 0 -0.011837,0.018809 1.4170176,2.4828301 28.383369 0 0 -0.011792,0.0189 1.4170176,2.4828301 28.383369 0 0 -0.011658,0.018945 1.4170176,2.4828301 28.383369 0 0 -0.011614,0.019036 1.4170176,2.4828301 28.383369 0 0 -0.01148,0.019082 1.4170176,2.4828301 28.383369 0 0 -0.011435,0.019173 1.4170176,2.4828301 28.383369 0 0 -0.00259,0.00442 L 4.2438683,7.7638467 5.904535,11.113215 v 0.04764 l 0.011793,-0.02382 0.011837,0.02382 v -0.04764 L 7.58883,7.7638422 8.9470062,5.0245512 a 2.4828301,1.4170177 61.616631 0 0 -0.00259,-0.00442 2.4828301,1.4170177 61.616631 0 0 -0.011435,-0.019173 2.4828301,1.4170177 61.616631 0 0 -0.01148,-0.019082 2.4828301,1.4170177 61.616631 0 0 -0.011613,-0.019036 2.4828301,1.4170177 61.616631 0 0 -0.011658,-0.018945 2.4828301,1.4170177 61.616631 0 0 -0.011792,-0.0189 2.4828301,1.4170177 61.616631 0 0 -0.011838,-0.018809 2.4828301,1.4170177 61.616631 0 0 -0.011971,-0.018763 2.4828301,1.4170177 61.616631 0 0 -0.012061,-0.018627 2.4828301,1.4170177 61.616631 0 0 -0.012105,-0.018581 2.4828301,1.4170177 61.616631 0 0 -0.012194,-0.018535 2.4828301,1.4170177 61.616631 0 0 -0.012329,-0.018399 2.4828301,1.4170177 61.616631 0 0 -0.012373,-0.018353 2.4828301,1.4170177 61.616631 0 0 -0.012462,-0.018217 2.4828301,1.4170177 61.616631 0 0 -0.012553,-0.018171 2.4828301,1.4170177 61.616631 0 0 -0.012597,-0.01808 2.4828301,1.4170177 61.616631 0 0 -0.01273,-0.017989 2.4828301,1.4170177 61.616631 0 0 -0.012775,-0.017898 2.4828301,1.4170177 61.616631 0 0 -0.012865,-0.017807 2.4828301,1.4170177 61.616631 0 0 -0.012954,-0.017716 2.4828301,1.4170177 61.616631 0 0 -0.012999,-0.017625 2.4828301,1.4170177 61.616631 0 0 -0.013088,-0.017488 2.4828301,1.4170177 61.616631 0 0 -0.013177,-0.017443 2.4828301,1.4170177 61.616631 0 0 -0.013222,-0.017306 2.4828301,1.4170177 61.616631 0 0 -0.013311,-0.01726 A 2.4828301,1.4170177 61.616631 0 0 8.6334802,4.5648527 2.4828301,1.4170177 61.616631 0 0 8.6200347,4.5478202 2.4828301,1.4170177 61.616631 0 0 8.6065002,4.5308786 2.4828301,1.4170177 61.616631 0 0 8.5929217,4.5140735 2.4828301,1.4170177 61.616631 0 0 8.5792982,4.4974053 2.4828301,1.4170177 61.616631 0 0 8.5655847,4.4807826 2.4828301,1.4170177 61.616631 0 0 8.5518273,4.464342 2.4828301,1.4170177 61.616631 0 0 8.5379798,4.447947 2.4828301,1.4170177 61.616631 0 0 8.5240884,4.4316886 2.4828301,1.4170177 61.616631 0 0 8.510107,4.4155668 2.4828301,1.4170177 61.616631 0 0 8.4961256,4.3995361 2.4828301,1.4170177 61.616631 0 0 8.4820552,4.3835965 2.4828301,1.4170177 61.616631 0 0 8.4678959,4.367839 2.4828301,1.4170177 61.616631 0 0 8.4537355,4.3521726 2.4828301,1.4170177 61.616631 0 0 8.4394872,4.3365973 2.4828301,1.4170177 61.616631 0 0 8.4251929,4.3211588 2.4828301,1.4170177 61.616631 0 0 8.4108546,4.3058566 2.4828301,1.4170177 61.616631 0 0 8.3964273,4.2906913 2.4828301,1.4170177 61.616631 0 0 8.3819994,4.275617 2.4828301,1.4170177 61.616631 0 0 8.3674821,4.2606791 2.4828301,1.4170177 61.616631 0 0 8.352965,4.2458782 2.4828301,1.4170177 61.616631 0 0 8.3383585,4.2312137 2.4828301,1.4170177 61.616631 0 0 8.3237522,4.216686 2.4828301,1.4170177 61.616631 0 0 8.3090564,4.2022494 2.4828301,1.4170177 61.616631 0 0 8.294316,4.1879947 2.4828301,1.4170177 61.616631 0 0 8.2795755,4.1738313 2.4828301,1.4170177 61.616631 0 0 8.2647457,4.1598042 2.4828301,1.4170177 61.616631 0 0 8.2499158,4.1459595 2.4828301,1.4170177 61.616631 0 0 8.2350414,4.132206 2.4828301,1.4170177 61.616631 0 0 8.2201225,4.1186346 2.4828301,1.4170177 61.616631 0 0 8.2051585,4.1051542 2.4828301,1.4170177 61.616631 0 0 8.1901949,4.091856 2.4828301,1.4170177 61.616631 0 0 8.1751866,4.0786488 2.4828301,1.4170177 61.616631 0 0 8.1601332,4.0656239 2.4828301,1.4170177 61.616631 0 0 8.1450356,4.0527357 2.4828301,1.4170177 61.616631 0 0 8.1299377,4.039984 2.4828301,1.4170177 61.616631 0 0 8.1147952,4.027369 2.4828301,1.4170177 61.616631 0 0 8.0996082,4.0149359 2.4828301,1.4170177 61.616631 0 0 8.0844211,4.0026397 2.4828301,1.4170177 61.616631 0 0 8.0835704,4.0019518 L 6.6991768,6.794076 5.9163257,8.372963 5.133519,6.794076 Z"
       inkscape:export-xdpi="96"
       inkscape:export-ydpi="96" />
    <path
       id="path867"
       style="display:inline;fill:#ffffff;fill-opacity:1;stroke-width:0.0256813"
       d="m 3.2945811,2.0683152 -0.0038,0.00146 c -2.054e-4,7.178e-4 -3.716e-4,0.00134 -5.77e-4,0.00205 0.00148,-0.00115 0.00289,-0.00235 0.00438,-0.00351 z m -0.00438,0.00351 C 3.1085888,2.2130397 2.9374477,2.3603794 2.781391,2.5109808 v -4.55e-5 C 2.759527,2.5324208 2.7366291,2.5544699 2.7149249,2.5762421 2.0490247,3.2343611 1.8967882,3.8485594 2.0395003,4.301637 2.2158674,4.6340316 2.3349447,4.7795161 2.8162647,4.9723471 3.0794923,4.5731623 3.3868819,4.209777 3.70779,3.9471481 3.4306173,3.7830209 3.205255,3.6918051 3.1064848,3.3742248 3.0185759,3.0095805 3.1272661,2.6304451 3.2902042,2.0718216 Z"
       sodipodi:nodetypes="cccccccccccccc"
       inkscape:export-xdpi="96"
       inkscape:export-ydpi="96" />
    <path
       sodipodi:nodetypes="cccccccccccccc"
       d="m 8.5328295,2.0683152 0.00379,0.00146 c 1.956e-4,7.178e-4 3.912e-4,0.00134 5.868e-4,0.00205 -0.00149,-0.00115 -0.00289,-0.00235 -0.00438,-0.00351 z m 0.00438,0.00351 C 8.7188248,2.2130433 8.8899673,2.360383 9.0460244,2.5109844 v -4.55e-5 c 0.021865,0.021486 0.044762,0.043535 0.066467,0.065307 C 9.7783957,3.2343611 9.9306333,3.8485594 9.78792,4.301637 9.6115528,4.6340316 9.4924744,4.7795161 9.0111519,4.9723471 8.7479227,4.5731623 8.4405325,4.209777 8.1196249,3.9471481 8.3967979,3.7830209 8.6221596,3.6918051 8.7209299,3.3742248 8.8088392,3.0095805 8.7001485,2.6304451 8.5372103,2.0718216 Z"
       style="display:inline;fill:#ffffff;fill-opacity:1;stroke-width:0.0256813"
       id="path1048"
       inkscape:export-xdpi="96"
       inkscape:export-ydpi="96" />
    <path
       inkscape:export-ydpi="288"
       inkscape:export-xdpi="288"
       id="path197"
       style="display:inline;fill:#fa2b55;fill-opacity:1;stroke-width:0.0328279"
       d="m 4.0921293,4.5687407 c 2.51e-5,3.6e-5 6.56e-5,5.55e-5 8.64e-5,8.81e-5 5.81e-5,-3.26e-5 1.272e-4,-5.89e-5 1.859e-4,-8.81e-5 z m 8.64e-5,8.81e-5 C 3.5400469,4.8794139 3.0771391,5.5595442 2.8949349,6.1501751 2.6109477,7.0723959 2.6688985,8.2403705 3.0474313,9.19537 3.0596643,9.2271 3.0727643,9.258681 3.0849973,9.289915 3.1757853,9.5085933 3.2825086,9.7143303 3.4017831,9.9034533 3.2074481,9.0916994 3.2173476,8.2057489 3.442877,7.4743017 3.6163277,6.8902428 3.9220552,6.4140356 4.3004132,6.1098251 4.8013527,6.7597697 5.4630167,7.3395461 5.9376741,8.0022672 6.4123314,7.3395461 7.0739952,6.7597697 7.5749348,6.1098251 7.9532931,6.4140356 8.2590206,6.8902428 8.4324712,7.4743017 8.6580001,8.2057489 8.6679,9.0916994 8.4735657,9.9034523 8.5928397,9.7143303 8.699563,9.5085923 8.7903511,9.2899146 8.8025851,9.2586808 8.8156834,9.2271002 8.8279173,9.19537 9.2064554,8.2403736 9.2644051,7.072399 8.9804171,6.1501782 8.798211,5.5595472 8.335304,4.879417 7.7831354,4.5688319 c 2.38e-5,-3.57e-5 1.95e-5,-5.52e-5 4.46e-5,-8.81e-5 h -2.249e-4 c 4.14e-5,2.57e-5 8.64e-5,6.51e-5 1.369e-4,8.81e-5 -0.5915187,0.8493844 -1.2204922,1.6584057 -1.8453245,2.473236 -2.55e-5,-3.45e-5 -6.25e-5,-5.62e-5 -8.64e-5,-8.81e-5 -2.67e-5,3.5e-5 -6.4e-5,5.67e-5 -8.63e-5,8.81e-5 C 5.3127556,6.2272376 4.6837373,5.4182163 4.0922188,4.5688319 Z" />
    <text
       xml:space="preserve"
       style="font-style:normal;font-weight:normal;font-size:4.7625px;line-height:1.25;font-family:sans-serif;fill:#000000;fill-opacity:1;stroke:none;stroke-width:0.264583"
       x="11.943839"
       y="8.3877306"
       id="text5139"
       inkscape:export-filename="/Users/vimalmenon/code/java/new-vimalmenon.com/assets/image/logo/new_dark.png"
       inkscape:export-xdpi="96"
       inkscape:export-ydpi="96"><tspan
         sodipodi:role="line"
         id="tspan5137"
         x="11.943839"
         y="8.3877306"
         style="font-size:4.7625px;fill:#ffffff;stroke-width:0.264583">Vimal Menon</tspan></text>
  </g>
</svg>
